<svg xmlns="http://www.w3.org/2000/svg" width="512" height="512" viewBox="0 0 512 512">
  <defs>
    <linearGradient id="bg" x1="64" y1="64" x2="448" y2="448" gradientUnits="userSpaceOnUse">
      <stop offset="0" stop-color="#4f46e5"/>
      <stop offset="0.55" stop-color="#a21caf"/>
      <stop offset="1" stop-color="#ec4899"/>
    </linearGradient>
    <radialGradient id="shine" cx="30%" cy="25%" r="80%">
      <stop offset="0" stop-color="#ffffff" stop-opacity="0.35"/>
      <stop offset="0.55" stop-color="#ffffff" stop-opacity="0.08"/>
      <stop offset="1" stop-color="#ffffff" stop-opacity="0"/>
    </radialGradient>
    <filter id="softShadow" x="-20%" y="-20%" width="140%" height="140%">
      <feOffset dy="10"/>
      <feGaussianBlur stdDeviation="14" result="blur"/>
      <feColorMatrix in="blur" type="matrix"
        values="0 0 0 0 0   0 0 0 0 0   0 0 0 0 0   0 0 0 0.22 0"/>
      <feComposite in2="SourceGraphic" operator="over"/>
    </filter>
  </defs>

  <!-- Rounded background -->
  <rect x="56" y="56" width="400" height="400" rx="96" fill="url(#bg)"/>
  <rect x="56" y="56" width="400" height="400" rx="96" fill="url(#shine)"/>

  <!-- Clock body -->
  <g filter="url(#softShadow)">
    <circle cx="256" cy="260" r="130" fill="#ffffff" fill-opacity="0.98"/>
    <circle cx="256" cy="260" r="118" fill="#ffffff" fill-opacity="0" stroke="#111827" stroke-opacity="0.12" stroke-width="10"/>

    <!-- Tick marks -->
    <g stroke="#111827" stroke-opacity="0.22" stroke-width="8" stroke-linecap="round">
      <line x1="256" y1="144" x2="256" y2="166"/>
      <line x1="256" y1="354" x2="256" y2="376"/>
      <line x1="140" y1="260" x2="162" y2="260"/>
      <line x1="350" y1="260" x2="372" y2="260"/>
    </g>

    <!-- Hands -->
    <g stroke="#111827" stroke-linecap="round">
      <line x1="256" y1="260" x2="256" y2="198" stroke-width="14"/>
      <line x1="256" y1="260" x2="308" y2="288" stroke-width="14"/>
      <circle cx="256" cy="260" r="10" fill="#111827"/>
    </g>

    <!-- Punch/check badge -->
    <g>
      <circle cx="338" cy="346" r="40" fill="#10b981"/>
      <path d="M322 346l12 12 24-26" fill="none" stroke="#ffffff" stroke-width="12" stroke-linecap="round" stroke-linejoin="round"/>
    </g>
  </g>
</svg>
